<svg width="21" height="20" viewBox="0 0 21 20" fill="none" xmlns="http://www.w3.org/2000/svg">
<path d="M6.09 0H14.91C18.27 0 21 2.6 21 5.8V14.2C21 15.7383 20.3584 17.2135 19.2163 18.3012C18.0742 19.3889 16.5252 20 14.91 20H6.09C2.73 20 0 17.4 0 14.2V5.8C0 4.26174 0.641623 2.78649 1.78372 1.69878C2.92582 0.61107 4.47483 0 6.09 0ZM5.88 2C4.87748 2 3.91602 2.37929 3.20714 3.05442C2.49825 3.72955 2.1 4.64522 2.1 5.6V14.4C2.1 16.39 3.7905 18 5.88 18H15.12C16.1225 18 17.084 17.6207 17.7929 16.9456C18.5018 16.2705 18.9 15.3548 18.9 14.4V5.6C18.9 3.61 17.2095 2 15.12 2H5.88ZM16.0125 3.5C16.3606 3.5 16.6944 3.6317 16.9406 3.86612C17.1867 4.10054 17.325 4.41848 17.325 4.75C17.325 5.08152 17.1867 5.39946 16.9406 5.63388C16.6944 5.8683 16.3606 6 16.0125 6C15.6644 6 15.3306 5.8683 15.0844 5.63388C14.8383 5.39946 14.7 5.08152 14.7 4.75C14.7 4.41848 14.8383 4.10054 15.0844 3.86612C15.3306 3.6317 15.6644 3.5 16.0125 3.5ZM10.5 5C11.8924 5 13.2277 5.52678 14.2123 6.46447C15.1969 7.40215 15.75 8.67392 15.75 10C15.75 11.3261 15.1969 12.5979 14.2123 13.5355C13.2277 14.4732 11.8924 15 10.5 15C9.10761 15 7.77225 14.4732 6.78769 13.5355C5.80312 12.5979 5.25 11.3261 5.25 10C5.25 8.67392 5.80312 7.40215 6.78769 6.46447C7.77225 5.52678 9.10761 5 10.5 5ZM10.5 7C9.66457 7 8.86335 7.31607 8.27261 7.87868C7.68187 8.44129 7.35 9.20435 7.35 10C7.35 10.7956 7.68187 11.5587 8.27261 12.1213C8.86335 12.6839 9.66457 13 10.5 13C11.3354 13 12.1366 12.6839 12.7274 12.1213C13.3181 11.5587 13.65 10.7956 13.65 10C13.65 9.20435 13.3181 8.44129 12.7274 7.87868C12.1366 7.31607 11.3354 7 10.5 7Z" fill="#C4C4C4"/>
</svg>
