<svg width="24" height="24" viewBox="0 0 24 24" fill="none" xmlns="http://www.w3.org/2000/svg">
<path d="M0 24L1.69627 17.8403C0.647564 16.0323 0.0974211 13.9848 0.103152 11.8916C0.103152 5.3327 5.46704 0 12.0516 0C15.2493 0 18.2521 1.23764 20.5043 3.48479C22.7622 5.73194 24.0057 8.72053 24 11.8973C24 18.4563 18.6361 23.789 12.0458 23.789H12.0401C10.0401 23.789 8.07449 23.2871 6.32664 22.3403L0 24ZM6.63037 20.1901L6.9914 20.4068C8.51575 21.308 10.2636 21.7814 12.0458 21.7871H12.0516C17.5243 21.7871 21.9828 17.3555 21.9828 11.903C21.9828 9.26236 20.9513 6.78137 19.0773 4.91065C17.2034 3.03992 14.7049 2.01331 12.0516 2.01331C6.57879 2.0076 2.12034 6.43916 2.12034 11.8916C2.12034 13.7567 2.64183 15.576 3.63897 17.1502L3.87392 17.5266L2.87106 21.1711L6.63037 20.1901Z" fill="white"/>
<path d="M0.418304 23.5836L2.05727 17.635C1.04295 15.8954 0.509995 13.9163 0.509995 11.8973C0.515726 5.56651 5.69051 0.416321 12.0515 0.416321C15.1404 0.416321 18.0343 1.61404 20.212 3.78134C22.3896 5.94864 23.5873 8.83457 23.5873 11.903C23.5873 18.2338 18.4068 23.384 12.0515 23.384H12.0458C10.1146 23.384 8.21772 22.8992 6.53291 21.9867L0.418304 23.5836Z" fill="#454444"/>
<path d="M0 24L1.69627 17.8403C0.647564 16.0323 0.0974211 13.9848 0.103152 11.8916C0.103152 5.3327 5.46704 0 12.0516 0C15.2493 0 18.2521 1.23764 20.5043 3.48479C22.7622 5.73194 24.0057 8.72053 24 11.8973C24 18.4563 18.6361 23.789 12.0458 23.789H12.0401C10.0401 23.789 8.07449 23.2871 6.32664 22.3403L0 24ZM6.63037 20.1901L6.9914 20.4068C8.51575 21.308 10.2636 21.7814 12.0458 21.7871H12.0516C17.5243 21.7871 21.9828 17.3555 21.9828 11.903C21.9828 9.26236 20.9513 6.78137 19.0773 4.91065C17.2034 3.03992 14.7049 2.01331 12.0516 2.01331C6.57879 2.0076 2.12034 6.43916 2.12034 11.8916C2.12034 13.7567 2.64183 15.576 3.63897 17.1502L3.87392 17.5266L2.87106 21.1711L6.63037 20.1901Z" fill="white"/>
<path fill-rule="evenodd" clip-rule="evenodd" d="M9.06582 6.91824C8.84232 6.42205 8.60737 6.41064 8.39533 6.40493C8.22341 6.39923 8.02284 6.39923 7.82227 6.39923C7.62169 6.39923 7.30078 6.47338 7.02571 6.76995C6.75063 7.06653 5.98273 7.78516 5.98273 9.25094C5.98273 10.711 7.05436 12.1255 7.20336 12.3251C7.35235 12.5247 9.27212 15.6217 12.3036 16.8137C14.8251 17.8061 15.3409 17.6065 15.8853 17.5551C16.4297 17.5038 17.6503 16.8365 17.9025 16.1407C18.1489 15.4449 18.1489 14.8517 18.0744 14.7262C17.9999 14.6008 17.7993 14.5266 17.5013 14.3783C17.2033 14.23 15.7363 13.5114 15.4612 13.4087C15.1862 13.3118 14.9856 13.2604 14.7907 13.557C14.5902 13.8536 14.0171 14.5209 13.8452 14.7205C13.6733 14.9201 13.4956 14.943 13.1976 14.7947C12.8996 14.6464 11.9369 14.3327 10.7965 13.3175C9.90823 12.5304 9.30651 11.5551 9.13459 11.2585C8.96267 10.962 9.11739 10.8023 9.26639 10.654C9.3982 10.5228 9.56439 10.3061 9.71338 10.135C9.86238 9.96387 9.91396 9.8384 10.0114 9.63878C10.1088 9.43916 10.063 9.26805 9.98845 9.11976C9.91396 8.97718 9.32943 7.5057 9.06582 6.91824Z" fill="white"/>
</svg>
